<svg width="64" height="64" viewBox="0 0 64 64" fill="none" xmlns="http://www.w3.org/2000/svg">
  <rect x="4" y="4" width="56" height="56" rx="20" fill="#F3F4F7"/>
  <path d="M39 17C31.8203 19.2694 27 26.0022 27 33.5C27 41.5502 32.4498 48.3967 40 50C34.6875 51.5 28.8044 50.2008 24.681 46.4991C20.5575 42.7974 18.3916 37.3074 18.8204 31.7825C19.2492 26.2576 22.2227 21.1687 26.9185 17.9203C31.6143 14.6719 37.5841 13.608 43.12 15C41.5966 15.3868 40.2047 16.0653 39 17Z" fill="#98A5B8"/>
  <path d="M46 21L47.2 23.8L50 25L47.2 26.2L46 29L44.8 26.2L42 25L44.8 23.8L46 21Z" fill="#98A5B8"/>
</svg>
