<svg width="64" height="64" viewBox="0 0 64 64" fill="none" xmlns="http://www.w3.org/2000/svg">
  <rect x="4" y="4" width="56" height="56" rx="20" fill="#F2EEFF"/>
  <path d="M37 18C31.4772 18 27 22.4772 27 28C27 33.5228 31.4772 38 37 38C39.0649 38 40.9836 37.3743 42.5773 36.3026C39.3199 42.0442 33.1614 45.3008 26.6514 44.6887C20.1413 44.0766 14.7138 39.7074 13.0006 33.3978C11.2874 27.0882 13.6513 20.3838 18.9598 16.5122C24.2683 12.6406 31.3356 12.3641 36.931 15.8139C36.9565 15.8296 36.9795 15.8492 37 15.8719V18Z" fill="#B5A7FF" stroke="#7D6BFF" stroke-width="3" stroke-linejoin="round"/>
  <path d="M44 18L45.5 21.5L49 23L45.5 24.5L44 28L42.5 24.5L39 23L42.5 21.5L44 18Z" fill="#7D6BFF"/>
</svg>
