<svg width="84" height="84" viewBox="0 0 84 84" fill="none" xmlns="http://www.w3.org/2000/svg">
  <defs>
    <linearGradient id="g1" x1="18" y1="12" x2="64" y2="70" gradientUnits="userSpaceOnUse">
      <stop stop-color="white" stop-opacity="0.95"/>
      <stop offset="1" stop-color="white" stop-opacity="0.7"/>
    </linearGradient>
    <linearGradient id="g2" x1="42" y1="18" x2="42" y2="56" gradientUnits="userSpaceOnUse">
      <stop stop-color="#FF8FA8"/>
      <stop offset="1" stop-color="#FF6A95"/>
    </linearGradient>
  </defs>
  <circle cx="42" cy="42" r="34" fill="url(#g1)" fill-opacity="0.22"/>
  <path d="M42 55C49.1797 55 55 49.1797 55 42V31C55 23.8203 49.1797 18 42 18C34.8203 18 29 23.8203 29 31V42C29 49.1797 34.8203 55 42 55Z" fill="url(#g2)" fill-opacity="0.2"/>
  <rect x="33" y="18" width="18" height="28" rx="9" fill="url(#g2)"/>
  <path d="M24 39C24 48.9411 32.0589 57 42 57C51.9411 57 60 48.9411 60 39" stroke="white" stroke-width="4" stroke-linecap="round"/>
  <path d="M42 57V66" stroke="white" stroke-width="4" stroke-linecap="round"/>
  <path d="M34 66H50" stroke="white" stroke-width="4" stroke-linecap="round"/>
  <path d="M33 22H51" stroke="white" stroke-opacity="0.35" stroke-width="2" stroke-linecap="round"/>
</svg>
