<svg width="96" height="96" viewBox="0 0 96 96" fill="none" xmlns="http://www.w3.org/2000/svg">
  <rect width="96" height="96" rx="28" fill="url(#bg)"/>
  <path d="M27 60C27 52.8203 32.8203 47 40 47C42.5944 47 45.0113 47.7593 47.0414 49.0671C49.5799 43.6692 55.0613 40 61.4 40C70.0156 40 77 46.9844 77 55.6C77 64.2156 70.0156 71.2 61.4 71.2H39.8C32.7308 71.2 27 65.4692 27 58.4V60Z" fill="#F3F6FB"/>
  <path d="M21 57.6C21 52.2981 25.2981 48 30.6 48C32.5158 48 34.3014 48.5607 35.801 49.5257C37.6768 45.5401 41.7275 42.8 46.4 42.8C52.7535 42.8 57.904 47.9505 57.904 54.304C57.904 60.6575 52.7535 65.808 46.4 65.808H30.6C25.2981 65.808 21 61.5099 21 56.208V57.6Z" fill="#DDE5F0"/>
  <defs>
    <linearGradient id="bg" x1="12" y1="8" x2="84" y2="88" gradientUnits="userSpaceOnUse">
      <stop stop-color="#D7E0EE"/>
      <stop offset="1" stop-color="#A5B4CA"/>
    </linearGradient>
  </defs>
</svg>
