<svg width="72" height="72" viewBox="0 0 72 72" fill="none" xmlns="http://www.w3.org/2000/svg">
  <circle cx="26" cy="28" r="10" fill="#FFD56A"/>
  <path d="M25 51H50C56.0751 51 61 46.0751 61 40C61 33.9249 56.0751 29 50 29C49.036 29 48.1009 29.1222 47.2091 29.3519C44.9748 24.3958 39.9877 21 34.2 21C27.3768 21 21.7011 25.7216 20.2528 32.1137C19.8432 32.0393 19.4211 32 19 32C14.0294 32 10 36.0294 10 41C10 45.9706 14.0294 50 19 50H25V51Z" fill="#DCE6F5"/>
  <path d="M25 51H50C56.0751 51 61 46.0751 61 40C61 33.9249 56.0751 29 50 29C49.036 29 48.1009 29.1222 47.2091 29.3519C44.9748 24.3958 39.9877 21 34.2 21C27.3768 21 21.7011 25.7216 20.2528 32.1137C19.8432 32.0393 19.4211 32 19 32C14.0294 32 10 36.0294 10 41C10 45.9706 14.0294 50 19 50H25" stroke="#8AA3C7" stroke-width="3.5" stroke-linecap="round" stroke-linejoin="round"/>
</svg>
